<?xml version="1.0"?>
<svg width="903" height="276" xmlns="http://www.w3.org/2000/svg" xmlns:svg="http://www.w3.org/2000/svg" preserveAspectRatio="xMidYMid meet" version="1.0">
 <g class="layer" display="inline">
  <title>Layer 1</title>
  <path d="m0,132l0,132l132.5,0l132.5,0l0,-132l0,-132l-132.5,0l-132.5,0l0,132zm148,-105.7l6.5,1.2l0.3,18.3c0.1,10 0,18.2 -0.4,18.2c-0.3,0 -3.4,-0.8 -6.8,-1.7c-9.5,-2.6 -27.7,-2.2 -38.8,0.9c-24.8,7 -45.5,28.6 -51.5,53.9c-2.4,10.5 -2.2,26 0.6,36.9c4.5,17.7 17.4,34.5 34.1,44.7c12.6,7.7 34.4,12.2 46.9,9.7l3.1,-0.6l0,-26.7c0,-14.6 0.5,-28.6 1.1,-31c2.4,-10.4 8.8,-19.5 18.6,-26.3c11.8,-8.1 36.8,-10.9 52.3,-5.9c8.9,2.9 15.9,7.1 21.7,13.2c6.6,6.7 7.8,10 7.8,20.4c0,10.8 -1.3,13.6 -8.4,19.2c-2.8,2.1 -5,4 -5.1,4.3c0,0.3 1.9,1.5 4.3,2.8c5.6,2.9 11.1,8.3 14.5,14.1c2.4,4.1 2.7,5.6 2.7,13.6c0,8.6 -0.2,9.4 -3.5,14.9c-9.1,15.1 -22.5,20.6 -50.1,20.6l-13.9,0l0,-13.5l0,-13.5l5.8,0c3.1,0 8.6,-0.5 12.2,-1c8,-1.3 12,-4.8 12,-10.6c0,-8.2 -5.5,-11.3 -20.2,-11.4l-9.8,0l0,-12.5l0,-12.5l5.8,-0.1c8.4,-0.1 13.3,-1.9 15.9,-5.8c3.2,-4.8 2.8,-9.7 -1.1,-13.7c-4.8,-4.8 -16.5,-4.7 -21.4,0.2c-3.9,4 -4.2,7 -4.2,48.7l0,40.4l-5.7,1.6c-19.5,5.5 -24.2,6.2 -43.3,6.2c-16.9,-0.1 -19.3,-0.3 -28.5,-2.8c-11.1,-3 -25.8,-9.8 -35,-16.1c-7.6,-5.2 -22.6,-20.4 -27.5,-27.7c-29.9,-45 -25.2,-100.4 11.7,-138.5c17.8,-18.4 36.9,-28.1 64.3,-32.7c5.5,-0.9 26.9,-0.5 33,0.6zm-12,108.2l0,19.5l-34.4,0l-34.3,0l-1.4,-4.8c-1.8,-6 -1.8,-25.4 -0.1,-30.5l1.4,-3.7l34.4,0l34.4,0l0,19.5z" fill="#E53935" id="svg_2"/>
  <path d="m303,3c0,1.7 0.7,2 4.8,2c5.7,0 11.2,2.6 12.9,6c2,3.9 1.8,114.5 -0.1,119.2c-1.7,4 -5,5.8 -12.3,6.5c-3.5,0.4 -5.3,1 -5.3,1.9c0,1.2 10.1,1.4 60,1.4c33,0 60,-0.3 60,-0.6c0,-0.3 0.9,-6.5 1.9,-13.7c1.1,-7.3 2.3,-15.9 2.6,-19.2c0.4,-3.3 0.9,-7 1.2,-8.3c0.6,-2.7 -2.5,-3.2 -3.3,-0.5c-0.3,1 -2.3,5.5 -4.5,10.1c-8,16.2 -19,23.1 -40.4,24.8c-11.4,0.9 -19,-0.1 -21.9,-3.1c-2.2,-2.2 -2.4,-3.4 -3.1,-16.7c-0.3,-7.9 -0.5,-19.9 -0.3,-26.8l0.3,-12.5l6.5,0.3c5.1,0.3 7.4,0.9 10.5,3c5,3.4 10,12.6 11.8,21.4c0.9,4.5 1.8,6.4 3,6.6c1.6,0.3 1.7,-2.3 1.7,-35.8c0,-33.4 -0.1,-36.1 -1.7,-35.8c-1.2,0.2 -2,2.1 -2.9,6.9c-2.7,14.8 -8.7,22.8 -18.8,24.9c-3.1,0.6 -6.6,1 -7.8,0.8l-2.3,-0.3l-0.3,-28.3l-0.2,-28.2l15.3,0c17.8,0 22.9,1.1 31,6.4c6.4,4.3 9.7,9.4 12.7,20.1c1.1,3.9 2.3,6.1 3.3,6.3c1.5,0.3 1.7,-1.6 1.7,-20.2l0,-20.6l-58,0c-57.3,0 -58,0 -58,2z" fill="#2596be" id="svg_3" transform="matrix(1 0 0 1 0 0)" xmlns="http://www.w3.org/2000/svg"/>
  <path d="m654,3c0,1.3 0.7,2 2,2c3.6,0 7.9,2.9 8.7,5.8c0.5,1.5 0.8,28.8 0.8,60.7c0,65.4 0.4,62.3 -7.5,64.6c-2.2,0.7 -4,1.8 -4,2.6c0,1 4.9,1.3 26,1.3c21.6,0 26,-0.2 26,-1.4c0,-0.8 -1.6,-1.8 -3.7,-2.3c-2.1,-0.5 -4.5,-2 -5.7,-3.6c-2.1,-2.8 -2.1,-3.6 -2.4,-67.3l-0.2,-64.4l-20,0c-19.3,0 -20,0.1 -20,2z" fill="#2596be" id="svg_4" xmlns="http://www.w3.org/2000/svg"/>
  <path d="m585.5,43c-10.5,2.7 -19.1,9.4 -25.3,19.7c-6.3,10.6 -7.4,15 -7.5,29.3c-0.2,14.4 1.1,19.4 7.5,30.3c4.9,8.2 12.2,14.6 20.1,17.5c20.2,7.5 42.7,0.4 53.2,-16.8c4.8,-7.9 6.5,-13.1 7.6,-22.5c2.9,-27.7 -8.8,-49.5 -30.4,-56.3c-7,-2.3 -18.9,-2.8 -25.2,-1.2zm17.6,7.3c1.9,1.2 4.5,4.4 5.9,7.2c2.5,5 2.5,5.1 2.5,33c0,32 -0.6,36.3 -6.1,41.9c-3,3.1 -4.1,3.6 -8,3.6c-5.9,0 -9.5,-2.6 -12.6,-8.8c-2.2,-4.6 -2.3,-5.3 -2.3,-33.2c0.1,-23.7 0.4,-29.4 1.8,-34c3.1,-10.4 11.4,-14.7 18.8,-9.7z" fill="#2596be" id="svg_5" xmlns="http://www.w3.org/2000/svg"/>
  <path d="m851.7,44.3c-7.6,2.8 -16,9.7 -21.3,17.4c-10.3,15 -11.1,44.1 -1.8,61.2c9.3,17.2 29.6,24.3 48.7,17c7.5,-2.9 13.3,-8.1 19.6,-17.6c4.6,-6.9 5,-7.8 3.6,-9.2c-1.4,-1.4 -1.7,-1.3 -3.2,0.9c-3.7,5.6 -11.2,11.9 -15.4,13c-14.3,3.9 -27.1,-7.5 -31.5,-28c-2.3,-11.1 -5.1,-10 25.2,-10l26.7,0l-0.7,-6.3c-2,-18.5 -11.2,-33.1 -24.3,-38.5c-6.9,-2.9 -17.6,-2.9 -25.6,0.1zm18.1,5.7c1.2,1.1 2.9,3.4 3.7,5c1.7,3.3 3.5,14.1 3.5,21.7l0,5.3l-14.3,0l-14.2,0l0.6,-8.8c1.2,-15.8 6.7,-25.2 14.8,-25.2c2.4,0 4.5,0.7 5.9,2z" fill="#2596be" id="svg_6" xmlns="http://www.w3.org/2000/svg"/>
  <path d="m441,46.4c0,0.8 1.1,1.7 2.5,2c4.3,1.1 8.3,7.8 17.6,29.1c2.8,6.6 6.3,14.5 7.7,17.5c1.4,3 4.4,10 6.7,15.5c13.7,32.3 13.8,32.5 16.2,32.5c1.6,0 2.7,-0.8 3.4,-2.8c1,-2.7 6.2,-14.7 14.5,-33.7c2.4,-5.5 5.4,-12.7 6.8,-16c14,-34 17.1,-39.8 22.1,-41.6c1.9,-0.7 3.5,-1.9 3.5,-2.6c0,-1 -3.5,-1.3 -15.5,-1.3c-13.1,0 -15.5,0.2 -15.5,1.5c0,0.8 0.9,1.5 2,1.5c3.5,0 7.7,2.8 8.4,5.5c1.1,4.2 -0.7,9.6 -12.2,37.7c-3.1,7.5 -5.9,13.5 -6.2,13.3c-0.4,-0.2 -2.4,-4.4 -4.5,-9.2c-2.1,-4.8 -5.5,-12.6 -7.7,-17.2c-4.7,-10.2 -7.8,-19.5 -7.8,-23.3c0,-3.5 3.2,-6.8 6.5,-6.8c1.6,0 2.5,-0.6 2.5,-1.5c0,-1.3 -3.5,-1.5 -25.5,-1.5c-21.1,0 -25.5,0.2 -25.5,1.4z" fill="#2596be" id="svg_7" xmlns="http://www.w3.org/2000/svg"/>
  <path d="m710,46.5c0,0.8 0.6,1.5 1.4,1.5c4.8,0 9.7,8 21.2,34.5c3.1,7.1 7.8,17.9 10.5,24c2.7,6 4.9,11.3 4.9,11.7c0,0.3 2,4.9 4.5,10.2c2.4,5.3 4.7,10.7 5.1,12.1c0.4,1.8 1.3,2.5 3,2.5c1.9,0 2.8,-1 4.3,-4.3c4.2,-9.4 11.2,-25.6 13.5,-31.2c7,-17.3 16.5,-39.1 20.8,-48.2c2.9,-6.2 7.6,-11.3 10.4,-11.3c0.8,0 1.4,-0.7 1.4,-1.5c0,-1.3 -2.4,-1.5 -15.5,-1.5c-13.1,0 -15.5,0.2 -15.5,1.5c0,1 1,1.5 3,1.5c3.9,0 8,3.9 8,7.5c0,3.2 -3.7,14.3 -9.7,29c-2.4,6 -5.2,12.8 -6.1,15c-2.9,7.2 -2.5,7.6 -10,-10c-1.6,-3.9 -4.1,-9.5 -5.5,-12.5c-4.5,-9.8 -7.7,-19 -7.7,-21.8c0,-3.4 3.7,-7.2 6.8,-7.2c1.3,0 2.2,-0.6 2.2,-1.5c0,-1.3 -3.5,-1.5 -25.5,-1.5c-22,0 -25.5,0.2 -25.5,1.5z" fill="#2596be" id="svg_8" xmlns="http://www.w3.org/2000/svg"/>
  <text fill="#2596be" font-family="Helvetica" font-size="120" font-weight="bold" id="svg_17" stroke-width="0" text-anchor="middle" transform="matrix(1 0 0 1 0 0)" x="598" xml:space="preserve" y="257">STEDS</text>
 </g>
</svg>